<?xml version="1.0" encoding="iso-8859-1"?>
<!-- Generator: Adobe Illustrator 19.0.0, SVG Export Plug-In . SVG Version: 6.00 Build 0)  -->
<svg version="1.1" id="Layer_1" xmlns="http://www.w3.org/2000/svg" xmlns:xlink="http://www.w3.org/1999/xlink" x="0px" y="0px"
	 viewBox="0 0 512 512" style="enable-background:new 0 0 512 512;" xml:space="preserve">
	 <style type="text/css">
        path{fill:url(#MyGradient)}
      </style>
	  <defs>
        <linearGradient id="MyGradient">
          <stop offset="5%" stop-color="white" />
          <stop offset="95%" stop-color="#38495a" />
        </linearGradient>
      </defs>
<g>
	<g>
		<g>
			<path d="M511.823,98.75l-152.444,99.877c-5.5,3.604-6.807,11.106-2.849,16.356l153.987,204.306
				C512.631,414.316,511.884,99.887,511.823,98.75z"/>
			<path d="M502.482,84.476c-5.545-2.8-486.968-3.027-492.963,0l246.482,161.488L502.482,84.476z"/>
			<path d="M326.014,220.486l-65.339,42.808c-2.837,1.859-6.51,1.86-9.349,0l-65.339-42.808c-5.01-3.283-11.709-2.116-15.314,2.668
				L15.116,429.543c1.603,0.194,479.694,0.252,481.769,0L341.327,223.153C337.722,218.37,331.024,217.204,326.014,220.486z"/>
			<path d="M152.624,198.628L0.179,98.75c-0.063,1.138-0.811,315.563,1.306,320.54l153.988-204.306
				C159.43,209.733,158.123,202.23,152.624,198.628z"/>
		</g>
	</g>
</g>
<g>
</g>
<g>
</g>
<g>
</g>
<g>
</g>
<g>
</g>
<g>
</g>
<g>
</g>
<g>
</g>
<g>
</g>
<g>
</g>
<g>
</g>
<g>
</g>
<g>
</g>
<g>
</g>
<g>
</g>
</svg>
