<svg xmlns="http://www.w3.org/2000/svg" viewBox="0 0 48 48">
<style type="text/css">
        path{fill:url(#MyGradient)}
      </style>
	  <defs>
        <linearGradient id="MyGradient">
          <stop offset="0%" stop-color="rgba(34,193,195,1)" />
          <stop offset="100%" stop-color="rgba(253,187,45,1)" />
        </linearGradient>
      </defs><path d="M23.5 15.5c-.3 0-.5-.2-.5-.5v-3c0-.3.2-.5.5-.5s.5.2.5.5v3c0 .3-.2.5-.5.5z"/><path d="M23.5 12.5c-.8 0-1.5-.7-1.5-1.5s.7-1.5 1.5-1.5 1.5.7 1.5 1.5-.7 1.5-1.5 1.5zm0-2c-.3 0-.5.2-.5.5s.2.5.5.5.5-.2.5-.5-.2-.5-.5-.5zM20.5 20.5c-1.1 0-2-.9-2-2s.9-2 2-2 2 .9 2 2-.9 2-2 2zm0-3c-.6 0-1 .4-1 1s.4 1 1 1 1-.4 1-1-.4-1-1-1zM26.5 20.5c-1.1 0-2-.9-2-2s.9-2 2-2 2 .9 2 2-.9 2-2 2zm0-3c-.6 0-1 .4-1 1s.4 1 1 1 1-.4 1-1-.4-1-1-1z"/><path d="M27 22.5h-7c-1.9 0-3.5-1.6-3.5-3.5v-1c0-1.9 1.6-3.5 3.5-3.5h7c1.9 0 3.5 1.6 3.5 3.5v1c0 1.9-1.6 3.5-3.5 3.5zm-7-7c-1.4 0-2.5 1.1-2.5 2.5v1c0 1.4 1.1 2.5 2.5 2.5h7c1.4 0 2.5-1.1 2.5-2.5v-1c0-1.4-1.1-2.5-2.5-2.5h-7z"/><path d="M25 25.5h-3c-.3 0-.5-.2-.5-.5v-3c0-.3.2-.5.5-.5h3c.3 0 .5.2.5.5v3c0 .3-.2.5-.5.5zm-2.5-1h2v-2h-2v2z"/><path d="M30 36.5H17c-.8 0-1.5-.7-1.5-1.5v-9c0-.8.7-1.5 1.5-1.5h13c.8 0 1.5.7 1.5 1.5v9c0 .8-.7 1.5-1.5 1.5zm-13-11c-.3 0-.5.2-.5.5v9c0 .3.2.5.5.5h13c.3 0 .5-.2.5-.5v-9c0-.3-.2-.5-.5-.5H17zM15 38.5c-.3 0-.5-.2-.5-.5 0-.8-.7-1.5-1.5-1.5s-1.5.7-1.5 1.5c0 .3-.2.5-.5.5s-.5-.2-.5-.5c0-1.4 1.1-2.5 2.5-2.5s2.5 1.1 2.5 2.5c0 .3-.2.5-.5.5z"/><path d="M16 31.5h-2.5c-1.7 0-3-1.3-3-3s1.3-3 3-3H16c.3 0 .5.2.5.5v5c0 .3-.2.5-.5.5zm-2.5-5c-1.1 0-2 .9-2 2s.9 2 2 2h2v-4h-2z"/><path d="M14 36.5c-.3 0-.5-.2-.5-.5v-4.5c-.3 0-.7-.1-1-.2V36c0 .3-.2.5-.5.5s-.5-.2-.5-.5v-5.5c0-.2.1-.4.3-.4s.4-.1.5 0c.4.3.8.4 1.2.4h.5c.3 0 .5.2.5.5v5c0 .3-.2.5-.5.5zM36 38.5c-.3 0-.5-.2-.5-.5 0-.8-.7-1.5-1.5-1.5s-1.5.7-1.5 1.5c0 .3-.2.5-.5.5s-.5-.2-.5-.5c0-1.4 1.1-2.5 2.5-2.5s2.5 1.1 2.5 2.5c0 .3-.2.5-.5.5zM33.5 31.5H31c-.3 0-.5-.2-.5-.5v-5c0-.3.2-.5.5-.5h2.5c1.7 0 3 1.3 3 3s-1.3 3-3 3zm-2-1h2c1.1 0 2-.9 2-2s-.9-2-2-2h-2v4z"/><path d="M35 36.5c-.3 0-.5-.2-.5-.5v-4.7c-.3.1-.7.2-1 .2V36c0 .3-.2.5-.5.5s-.5-.2-.5-.5v-5c0-.3.2-.5.5-.5h.5c.4 0 .8-.1 1.2-.4.2-.1.4-.1.5 0 .2.1.3.3.3.4V36c0 .3-.2.5-.5.5zM27.5 32.5c-.3 0-.5-.2-.5-.5v-4c0-.3.2-.5.5-.5s.5.2.5.5v4c0 .3-.2.5-.5.5z"/><path d="M28.5 28.5h-2c-.3 0-.5-.2-.5-.5s.2-.5.5-.5h2c.3 0 .5.2.5.5s-.2.5-.5.5zM19.5 30.5h-1c-.3 0-.5-.2-.5-.5v-2c0-.3.2-.5.5-.5h1c.8 0 1.5.7 1.5 1.5s-.7 1.5-1.5 1.5zm-.5-1h.5c.3 0 .5-.2.5-.5s-.2-.5-.5-.5H19v1z"/><path d="M19.5 32.5h-1c-.3 0-.5-.2-.5-.5v-2c0-.3.2-.5.5-.5h1c.8 0 1.5.7 1.5 1.5s-.7 1.5-1.5 1.5zm-.5-1h.5c.3 0 .5-.2.5-.5s-.2-.5-.5-.5H19v1zM23.5 32.5c-.8 0-1.5-.7-1.5-1.5v-2c0-.8.7-1.5 1.5-1.5s1.5.7 1.5 1.5v2c0 .8-.7 1.5-1.5 1.5zm0-4c-.3 0-.5.2-.5.5v2c0 .3.2.5.5.5s.5-.2.5-.5v-2c0-.3-.2-.5-.5-.5z"/><path d="M24 48C10.8 48 0 37.2 0 24S10.8 0 24 0s24 10.8 24 24-10.8 24-24 24zm0-47C11.3 1 1 11.3 1 24s10.3 23 23 23 23-10.3 23-23S36.7 1 24 1z"/></svg>