<svg xmlns="http://www.w3.org/2000/svg" viewBox="0 0 100 100">
<style type="text/css">
        path{fill:url(#MyGradient)}
      </style>
	  <defs>
        <linearGradient id="MyGradient">
          <stop offset="5%" stop-color="white" />
          <stop offset="95%" stop-color="#38495a" />
        </linearGradient>
        </defs>
<path d="M92.654 59.701c.527-1.662.816-3.43.816-5.264 0-9.621-7.827-17.448-17.448-17.448-3.225 0-6.239.895-8.833 2.427H51.488v-13.89a4.637 4.637 0 0 1 4.632-4.632h.738a4.637 4.637 0 0 1 4.632 4.632c0 4.208 3.424 7.632 7.632 7.632h.909c4.208 0 7.632-3.424 7.632-7.632V6.439a1.5 1.5 0 1 0-3 0v19.087a4.637 4.637 0 0 1-4.632 4.632h-.909a4.637 4.637 0 0 1-4.632-4.632c0-4.208-3.424-7.632-7.632-7.632h-.738c-4.208 0-7.632 3.424-7.632 7.632v13.89H32.899a17.316 17.316 0 0 0-8.92-2.48c-9.621 0-17.448 7.827-17.448 17.448 0 1.834.288 3.602.816 5.264L3.593 85.663c-.659 4.572 2.211 7.741 5.348 8.854.88.312 1.846.485 2.833.485 2.529 0 5.195-1.139 6.898-3.992l12.293-20.587c1.398 2.269 3.899 3.79 6.754 3.79 3.286 0 6.111-2.007 7.315-4.86h9.913c1.192 2.88 4.029 4.913 7.334 4.913 2.855 0 5.355-1.521 6.754-3.79l12.293 20.587c1.704 2.853 4.369 3.992 6.898 3.992.986 0 1.952-.173 2.833-.485 3.137-1.113 6.007-4.282 5.348-8.854l-3.753-26.015zm-2.185-5.264c0 1.662-.296 3.252-.815 4.739a14.443 14.443 0 0 1-1.209 2.597c-.105.178-.209.357-.322.53-.104.161-.214.316-.324.472a14.648 14.648 0 0 1-1.433 1.725c-.058.06-.112.123-.171.181-.308.306-.63.599-.965.877-.046.038-.094.072-.141.109-.284.23-.577.449-.878.657-.104.072-.21.14-.315.208a14.81 14.81 0 0 1-.786.478c-.119.067-.237.135-.358.199-.293.155-.593.298-.898.433-.091.04-.179.086-.271.125-.386.162-.782.306-1.184.434-.126.04-.254.071-.381.108-.29.084-.583.161-.88.227-.155.034-.311.064-.467.094-.293.055-.589.099-.888.136-.143.018-.285.038-.429.051-.44.041-.884.068-1.335.068-.489 0-.977-.028-1.463-.078-.161-.016-.32-.048-.481-.07a14.32 14.32 0 0 1-.946-.151c-.223-.046-.443-.107-.663-.164-.238-.06-.477-.119-.712-.192-.26-.081-.517-.176-.774-.272-.293-.109-.588-.21-.873-.337.005-.033.003-.066.008-.099.059-.39.1-.787.1-1.193 0-.82-.125-1.612-.357-2.357-1.006-3.229-4.023-5.579-7.579-5.579l-.144.001c-.064-.223-.116-.447-.169-.672-.036-.151-.073-.301-.103-.453a14.324 14.324 0 0 1-.192-1.235c-.017-.151-.036-.301-.048-.452-.03-.38-.051-.762-.051-1.145 0-.447.027-.887.067-1.323a14.464 14.464 0 0 1 .222-1.549c.008-.04.019-.079.027-.119.088-.414.193-.822.315-1.222l.034-.117c.135-.43.289-.851.463-1.262l.029-.067c.356-.832.787-1.623 1.286-2.367l.073-.107c.242-.354.498-.699.77-1.029l.023-.029a13.951 13.951 0 0 1 1.107-1.183 14.904 14.904 0 0 1 1.322-1.125c.119-.09.237-.181.358-.268.208-.148.422-.29.639-.428a14.35 14.35 0 0 1 7.713-2.252c7.968-.001 14.449 6.48 14.449 14.447zm-66.49-14.501a14.35 14.35 0 0 1 8.811 3.023 14.66 14.66 0 0 1 1.535 1.361 14.515 14.515 0 0 1 1.577 1.918l.095.14c.486.728.908 1.501 1.258 2.314l.055.125c.168.402.32.812.452 1.232l.04.138c.118.387.219.78.304 1.18.011.054.025.106.036.16a14.204 14.204 0 0 1 .219 1.538c.04.436.067.875.067 1.321 0 .384-.021.765-.051 1.146-.012.15-.031.299-.048.448a14.441 14.441 0 0 1-.192 1.233c-.032.158-.071.315-.108.472-.052.22-.103.439-.166.658-.026-.001-.052.003-.078.002-.022 0-.043-.003-.065-.003-.086 0-.17.01-.256.013-.177.005-.354.01-.528.027-.047.005-.094.013-.141.019a7.918 7.918 0 0 0-6.051 4.097l-.011.022a8.027 8.027 0 0 0-.322.667c-.021.05-.036.103-.057.153a8.165 8.165 0 0 0-.21.573c-.032.102-.053.208-.081.311-.04.149-.084.297-.116.449-.031.149-.048.302-.07.454-.016.112-.04.222-.051.336a8.11 8.11 0 0 0-.042.814c0 .407.04.803.1 1.193.005.033.003.066.008.099-.285.128-.581.228-.873.337-.257.096-.514.191-.774.272-.235.072-.473.131-.711.192-.221.057-.441.118-.664.164a14.32 14.32 0 0 1-.946.151c-.161.022-.32.054-.481.07-.485.049-.973.078-1.463.078-.451 0-.895-.027-1.335-.068-.144-.013-.286-.034-.429-.051a14.388 14.388 0 0 1-1.355-.23 14.36 14.36 0 0 1-.88-.227c-.127-.037-.256-.068-.381-.108a14.169 14.169 0 0 1-1.184-.434c-.092-.038-.18-.084-.271-.125a14.268 14.268 0 0 1-.898-.433c-.121-.064-.239-.132-.358-.199-.267-.151-.529-.31-.786-.478-.106-.069-.211-.137-.315-.208a14.424 14.424 0 0 1-.878-.657c-.046-.037-.095-.071-.141-.109a14.841 14.841 0 0 1-.965-.877c-.059-.058-.113-.122-.171-.181-.234-.24-.46-.488-.677-.744-.1-.118-.196-.24-.293-.362-.16-.202-.314-.409-.463-.619-.11-.156-.22-.312-.324-.472-.113-.173-.217-.352-.322-.53-.48-.814-.89-1.68-1.209-2.597a14.342 14.342 0 0 1-.815-4.739c.001-7.968 6.482-14.449 14.449-14.449zm-7.883 49.536c-1.6 2.679-4.314 2.87-6.152 2.217-1.838-.652-3.827-2.509-3.381-5.598l3.13-21.701c.245.35.506.686.774 1.016.047.058.096.114.144.171.671.802 1.41 1.54 2.208 2.205l.135.112c.406.332.825.648 1.26.942l.062.04c.417.28.847.54 1.287.783.054.03.107.062.162.091.437.235.885.45 1.342.648.097.042.195.082.292.122.461.189.928.366 1.406.516.045.014.092.025.137.039.448.136.904.251 1.364.352.108.023.215.049.324.07.486.096.979.171 1.477.226.105.012.212.02.318.029.527.048 1.057.081 1.594.081.422 0 .844-.02 1.264-.051.14-.01.278-.026.418-.04.288-.028.575-.062.861-.104.08-.012.161-.016.242-.029L16.096 89.472zm21.623-18.26c-2.274 0-4.174-1.554-4.744-3.649-.036-.132-.077-.263-.102-.396a4.927 4.927 0 0 1-.09-.89 4.941 4.941 0 0 1 4.936-4.936c.321 0 .634.036.939.095.135.026.26.073.39.11.17.048.342.092.505.157.116.046.224.107.335.162.165.081.328.164.482.262.099.063.191.135.285.205.15.112.295.228.431.356a5.15 5.15 0 0 1 .798.966c.099.157.185.322.266.49.051.106.106.21.149.319.074.186.128.381.18.577.026.101.062.199.082.302.059.303.095.615.095.935 0 .284-.038.558-.084.828-.017.097-.033.194-.057.293-.511 2.181-2.462 3.814-4.796 3.814zm16.626-4.859h-8.691v-.076a7.986 7.986 0 0 0-.119-1.324 7.952 7.952 0 0 0-.233-1.016 7.81 7.81 0 0 0-.486-1.191 7.966 7.966 0 0 0-.464-.815c-.017-.026-.031-.054-.048-.08a8.126 8.126 0 0 0-.805-.997 8.178 8.178 0 0 0-.637-.612c-.033-.028-.062-.06-.096-.087a7.851 7.851 0 0 0-.809-.577 7.825 7.825 0 0 0-1.145-.61c.131-.476.233-.957.322-1.441l.031-.184c.07-.404.125-.809.167-1.217.011-.108.024-.216.033-.325.038-.47.064-.942.064-1.416 0-.584-.031-1.163-.088-1.737-.017-.172-.051-.338-.073-.508a17.438 17.438 0 0 0-.183-1.194c-.035-.175-.085-.344-.126-.517-.089-.383-.18-.766-.294-1.141-.047-.155-.107-.305-.159-.458a17.65 17.65 0 0 0-.418-1.14c-.057-.136-.123-.267-.183-.401a16.932 16.932 0 0 0-.54-1.119c-.068-.127-.145-.249-.216-.375-.202-.355-.41-.707-.637-1.047-.092-.139-.193-.271-.289-.408a17.454 17.454 0 0 0-.677-.905c-.137-.17-.284-.331-.427-.495-.152-.174-.292-.356-.452-.524h26.718c-.174.182-.328.379-.493.567-.139.159-.282.313-.414.476-.256.314-.493.64-.726.97-.08.113-.165.223-.242.338a17.17 17.17 0 0 0-.697 1.147c-.052.092-.109.181-.159.274a17.12 17.12 0 0 0-.596 1.236c-.042.096-.09.189-.131.285-.172.411-.32.831-.46 1.255-.039.117-.085.231-.121.349a17.19 17.19 0 0 0-.318 1.235c-.033.145-.076.286-.106.433-.083.414-.139.836-.193 1.258-.019.152-.05.3-.066.453a17.698 17.698 0 0 0-.088 1.745c0 .474.026.946.064 1.416.009.108.022.216.033.325.041.408.096.814.167 1.217l.031.184c.089.484.192.965.322 1.441-.318.135-.62.296-.915.47a8.026 8.026 0 0 0-1.036.715c-.036.029-.067.063-.102.093a8.061 8.061 0 0 0-.836.83c-.215.247-.42.502-.604.774-.019.028-.034.058-.052.085a8.042 8.042 0 0 0-.573 1.042 8.01 8.01 0 0 0-.375.959l-.007.026c-.098.322-.17.654-.227.991-.014.086-.028.171-.039.257-.047.35-.08.704-.08 1.067l-.001.024zm7.936 4.912c-2.342 0-4.299-1.643-4.802-3.835-.021-.09-.034-.178-.05-.267a4.893 4.893 0 0 1-.084-.835c0-.32.036-.632.095-.935.02-.104.056-.202.082-.303.051-.196.105-.39.179-.576.044-.11.099-.215.15-.321.081-.167.166-.331.265-.487.063-.101.133-.197.203-.293a4.917 4.917 0 0 1 1.025-1.029c.094-.07.187-.142.286-.206.153-.098.317-.18.481-.262.112-.055.219-.116.336-.163.163-.065.335-.109.506-.157.13-.036.254-.084.388-.109.305-.059.618-.095.939-.095a4.941 4.941 0 0 1 4.936 4.936c0 .305-.037.601-.09.89-.025.133-.066.265-.102.397-.569 2.097-2.469 3.65-4.743 3.65zm27.775 20.477c-1.838.651-4.552.463-6.152-2.217L73.237 71.662c.08.013.161.017.242.029.286.042.573.076.861.104.139.013.278.029.418.04.42.031.841.051 1.264.051.537 0 1.067-.033 1.594-.081.106-.01.212-.018.318-.029.498-.055.99-.13 1.477-.226.109-.021.216-.047.324-.07.461-.1.916-.215 1.364-.352.045-.014.092-.025.137-.039.478-.15.945-.326 1.406-.515.098-.04.196-.08.293-.122.457-.198.905-.412 1.342-.647.055-.029.107-.061.162-.091.44-.243.87-.503 1.287-.783l.062-.04c.434-.294.853-.61 1.26-.942l.135-.112a17.488 17.488 0 0 0 2.208-2.205c.048-.057.097-.113.144-.171.268-.329.529-.666.774-1.016l3.13 21.701c.444 3.086-1.545 4.944-3.383 5.596z"/><path d="M22.889 52.629c.284.306.682.479 1.099.479h.003a1.501 1.501 0 0 0 1.1-.483l2.496-2.709c.255-.277.397-.64.397-1.017v-3.846a1.5 1.5 0 0 0-1.5-1.5h-5.011a1.5 1.5 0 0 0-1.5 1.5V48.9c0 .378.143.743.401 1.021l2.515 2.708zm.085-6.075h2.011v1.76l-1 1.086-1.011-1.089v-1.757zm2.096 9.585a1.5 1.5 0 0 0-1.1-.479h-.002c-.418 0-.817.176-1.101.483l-2.497 2.709c-.255.277-.397.64-.397 1.017v3.846a1.5 1.5 0 0 0 1.5 1.5h5.011a1.5 1.5 0 0 0 1.5-1.5v-3.846c0-.378-.143-.743-.4-1.021l-2.514-2.709zm-.086 6.076h-2.011v-1.76l1-1.086 1.01 1.089v1.757zm.27-7.819c0 .418.176.817.483 1.101l2.709 2.497c.277.255.64.397 1.017.397h3.846a1.5 1.5 0 0 0 1.5-1.5V51.88a1.5 1.5 0 0 0-1.5-1.5h-3.846c-.378 0-.743.143-1.021.4l-2.709 2.514a1.507 1.507 0 0 0-.479 1.102zm4.798-1.017h1.757v2.011h-1.76l-1.086-1 1.089-1.011zM14.649 58.39h3.846c.378 0 .743-.143 1.021-.4l2.709-2.514a1.501 1.501 0 0 0-.004-2.203l-2.709-2.497a1.502 1.502 0 0 0-1.017-.397h-3.846a1.5 1.5 0 0 0-1.5 1.5v5.011a1.5 1.5 0 0 0 1.5 1.5zm1.5-5.011h1.76l1.086 1-1.089 1.01h-1.757v-2.01zm59.918-1.401c2.392 0 4.338-1.946 4.338-4.338s-1.946-4.338-4.338-4.338c-2.392 0-4.337 1.946-4.337 4.338s1.946 4.338 4.337 4.338zm0-5.676a1.34 1.34 0 0 1 0 2.676 1.339 1.339 0 0 1 0-2.676zm0 10.489a4.342 4.342 0 0 0-4.337 4.337 4.343 4.343 0 0 0 4.337 4.338 4.343 4.343 0 0 0 4.338-4.338 4.343 4.343 0 0 0-4.338-4.337zm0 5.675c-.737 0-1.337-.6-1.337-1.338 0-.737.6-1.337 1.337-1.337.738 0 1.338.6 1.338 1.337 0 .738-.6 1.338-1.338 1.338zm2.407-8.082a4.343 4.343 0 0 0 4.338 4.338c2.392 0 4.337-1.946 4.337-4.338s-1.946-4.338-4.337-4.338a4.343 4.343 0 0 0-4.338 4.338zm4.338-1.338a1.339 1.339 0 0 1 0 2.676 1.34 1.34 0 0 1 0-2.676zm-9.151 1.338c0-2.392-1.946-4.338-4.338-4.338s-4.338 1.946-4.338 4.338 1.946 4.338 4.338 4.338 4.338-1.946 4.338-4.338zm-4.338 1.338a1.34 1.34 0 0 1 0-2.676 1.34 1.34 0 0 1 0 2.676zm-21.762-4.613h-2.499a1.5 1.5 0 1 0 0 3h2.499a1.5 1.5 0 1 0 0-3zm9.249 1.5a1.5 1.5 0 0 0-1.5-1.5h-2.499a1.5 1.5 0 1 0 0 3h2.499a1.5 1.5 0 0 0 1.5-1.5z"/></svg>